<mxfile host="app.diagrams.net" modified="2023-08-26T16:39:15.342Z" agent="Mozilla/5.0 (Windows NT 10.0; Win64; x64) AppleWebKit/537.36 (KHTML, like Gecko) Chrome/116.0.0.0 Safari/537.36" etag="t7dXDxo-dqWYYdRUjHFi" version="21.6.9" type="github">
  <diagram name="Page-1" id="2YBvvXClWsGukQMizWep">
    <mxGraphModel dx="989" dy="517" grid="1" gridSize="10" guides="1" tooltips="1" connect="1" arrows="1" fold="1" page="1" pageScale="1" pageWidth="850" pageHeight="1100" math="0" shadow="0">
      <root>
        <mxCell id="0" />
        <mxCell id="1" parent="0" />
        <mxCell id="naT41bIFqTK1BzOdAEq4-2" value="User" style="shape=umlActor;verticalLabelPosition=bottom;verticalAlign=top;html=1;" vertex="1" parent="1">
          <mxGeometry x="30" y="70" width="30" height="60" as="geometry" />
        </mxCell>
        <mxCell id="naT41bIFqTK1BzOdAEq4-4" value="Clock&lt;br&gt;Modele" style="shape=umlLifeline;perimeter=lifelinePerimeter;whiteSpace=wrap;html=1;container=1;dropTarget=0;collapsible=0;recursiveResize=0;outlineConnect=0;portConstraint=eastwest;newEdgeStyle={&quot;edgeStyle&quot;:&quot;elbowEdgeStyle&quot;,&quot;elbow&quot;:&quot;vertical&quot;,&quot;curved&quot;:0,&quot;rounded&quot;:0};" vertex="1" parent="1">
          <mxGeometry x="120" y="70" width="100" height="520" as="geometry" />
        </mxCell>
        <mxCell id="naT41bIFqTK1BzOdAEq4-28" value="" style="html=1;points=[];perimeter=orthogonalPerimeter;outlineConnect=0;targetShapes=umlLifeline;portConstraint=eastwest;newEdgeStyle={&quot;edgeStyle&quot;:&quot;elbowEdgeStyle&quot;,&quot;elbow&quot;:&quot;vertical&quot;,&quot;curved&quot;:0,&quot;rounded&quot;:0};" vertex="1" parent="naT41bIFqTK1BzOdAEq4-4">
          <mxGeometry x="45" y="180" width="10" height="270" as="geometry" />
        </mxCell>
        <mxCell id="naT41bIFqTK1BzOdAEq4-29" value="" style="html=1;points=[];perimeter=orthogonalPerimeter;outlineConnect=0;targetShapes=umlLifeline;portConstraint=eastwest;newEdgeStyle={&quot;edgeStyle&quot;:&quot;elbowEdgeStyle&quot;,&quot;elbow&quot;:&quot;vertical&quot;,&quot;curved&quot;:0,&quot;rounded&quot;:0};" vertex="1" parent="naT41bIFqTK1BzOdAEq4-4">
          <mxGeometry x="50" y="215" width="10" height="40" as="geometry" />
        </mxCell>
        <mxCell id="naT41bIFqTK1BzOdAEq4-30" value="Change State()" style="html=1;align=left;spacingLeft=2;endArrow=block;rounded=0;edgeStyle=orthogonalEdgeStyle;curved=0;rounded=0;" edge="1" target="naT41bIFqTK1BzOdAEq4-29" parent="naT41bIFqTK1BzOdAEq4-4">
          <mxGeometry relative="1" as="geometry">
            <mxPoint x="55" y="195" as="sourcePoint" />
            <Array as="points">
              <mxPoint x="85" y="225" />
            </Array>
          </mxGeometry>
        </mxCell>
        <mxCell id="naT41bIFqTK1BzOdAEq4-5" value="Real&lt;br&gt;Time&lt;br&gt;Clock" style="shape=umlLifeline;perimeter=lifelinePerimeter;whiteSpace=wrap;html=1;container=1;dropTarget=0;collapsible=0;recursiveResize=0;outlineConnect=0;portConstraint=eastwest;newEdgeStyle={&quot;edgeStyle&quot;:&quot;elbowEdgeStyle&quot;,&quot;elbow&quot;:&quot;vertical&quot;,&quot;curved&quot;:0,&quot;rounded&quot;:0};" vertex="1" parent="1">
          <mxGeometry x="250" y="70" width="100" height="520" as="geometry" />
        </mxCell>
        <mxCell id="naT41bIFqTK1BzOdAEq4-6" value="AppInf" style="shape=umlLifeline;perimeter=lifelinePerimeter;whiteSpace=wrap;html=1;container=1;dropTarget=0;collapsible=0;recursiveResize=0;outlineConnect=0;portConstraint=eastwest;newEdgeStyle={&quot;edgeStyle&quot;:&quot;elbowEdgeStyle&quot;,&quot;elbow&quot;:&quot;vertical&quot;,&quot;curved&quot;:0,&quot;rounded&quot;:0};" vertex="1" parent="1">
          <mxGeometry x="375" y="70" width="100" height="520" as="geometry" />
        </mxCell>
        <mxCell id="naT41bIFqTK1BzOdAEq4-25" value="" style="html=1;points=[];perimeter=orthogonalPerimeter;outlineConnect=0;targetShapes=umlLifeline;portConstraint=eastwest;newEdgeStyle={&quot;edgeStyle&quot;:&quot;elbowEdgeStyle&quot;,&quot;elbow&quot;:&quot;vertical&quot;,&quot;curved&quot;:0,&quot;rounded&quot;:0};" vertex="1" parent="naT41bIFqTK1BzOdAEq4-6">
          <mxGeometry x="45" y="110" width="10" height="80" as="geometry" />
        </mxCell>
        <mxCell id="naT41bIFqTK1BzOdAEq4-26" value="Settings button" style="html=1;verticalAlign=bottom;endArrow=block;edgeStyle=elbowEdgeStyle;elbow=vertical;curved=0;rounded=0;" edge="1" target="naT41bIFqTK1BzOdAEq4-25" parent="naT41bIFqTK1BzOdAEq4-6">
          <mxGeometry x="0.0857" y="10" relative="1" as="geometry">
            <mxPoint x="-15" y="110" as="sourcePoint" />
            <Array as="points">
              <mxPoint x="-335" y="110" />
            </Array>
            <mxPoint as="offset" />
          </mxGeometry>
        </mxCell>
        <mxCell id="naT41bIFqTK1BzOdAEq4-7" value="DisplayInf" style="shape=umlLifeline;perimeter=lifelinePerimeter;whiteSpace=wrap;html=1;container=1;dropTarget=0;collapsible=0;recursiveResize=0;outlineConnect=0;portConstraint=eastwest;newEdgeStyle={&quot;edgeStyle&quot;:&quot;elbowEdgeStyle&quot;,&quot;elbow&quot;:&quot;vertical&quot;,&quot;curved&quot;:0,&quot;rounded&quot;:0};" vertex="1" parent="1">
          <mxGeometry x="500" y="70" width="100" height="520" as="geometry" />
        </mxCell>
        <mxCell id="naT41bIFqTK1BzOdAEq4-44" value="" style="html=1;points=[];perimeter=orthogonalPerimeter;outlineConnect=0;targetShapes=umlLifeline;portConstraint=eastwest;newEdgeStyle={&quot;edgeStyle&quot;:&quot;elbowEdgeStyle&quot;,&quot;elbow&quot;:&quot;vertical&quot;,&quot;curved&quot;:0,&quot;rounded&quot;:0};" vertex="1" parent="naT41bIFqTK1BzOdAEq4-7">
          <mxGeometry x="45" y="280" width="10" height="50" as="geometry" />
        </mxCell>
        <mxCell id="naT41bIFqTK1BzOdAEq4-8" value="LCD" style="shape=umlLifeline;perimeter=lifelinePerimeter;whiteSpace=wrap;html=1;container=1;dropTarget=0;collapsible=0;recursiveResize=0;outlineConnect=0;portConstraint=eastwest;newEdgeStyle={&quot;edgeStyle&quot;:&quot;elbowEdgeStyle&quot;,&quot;elbow&quot;:&quot;vertical&quot;,&quot;curved&quot;:0,&quot;rounded&quot;:0};" vertex="1" parent="1">
          <mxGeometry x="620" y="70" width="100" height="520" as="geometry" />
        </mxCell>
        <mxCell id="naT41bIFqTK1BzOdAEq4-15" value="" style="html=1;points=[];perimeter=orthogonalPerimeter;outlineConnect=0;targetShapes=umlLifeline;portConstraint=eastwest;newEdgeStyle={&quot;edgeStyle&quot;:&quot;elbowEdgeStyle&quot;,&quot;elbow&quot;:&quot;vertical&quot;,&quot;curved&quot;:0,&quot;rounded&quot;:0};" vertex="1" parent="1">
          <mxGeometry x="40" y="180" width="10" height="230" as="geometry" />
        </mxCell>
        <mxCell id="naT41bIFqTK1BzOdAEq4-16" value="" style="endArrow=none;dashed=1;html=1;dashPattern=1 3;strokeWidth=2;rounded=0;" edge="1" parent="1" source="naT41bIFqTK1BzOdAEq4-2" target="naT41bIFqTK1BzOdAEq4-15">
          <mxGeometry width="50" height="50" relative="1" as="geometry">
            <mxPoint x="230" y="150" as="sourcePoint" />
            <mxPoint x="280" y="100" as="targetPoint" />
          </mxGeometry>
        </mxCell>
        <mxCell id="naT41bIFqTK1BzOdAEq4-27" value="Buttons()" style="html=1;verticalAlign=bottom;endArrow=open;dashed=1;endSize=8;edgeStyle=elbowEdgeStyle;elbow=vertical;curved=0;rounded=0;" edge="1" source="naT41bIFqTK1BzOdAEq4-25" parent="1" target="naT41bIFqTK1BzOdAEq4-28">
          <mxGeometry relative="1" as="geometry">
            <mxPoint x="350" y="255" as="targetPoint" />
          </mxGeometry>
        </mxCell>
        <mxCell id="naT41bIFqTK1BzOdAEq4-45" value="&lt;span style=&quot;border-color: var(--border-color); font-size: 12px; background-color: rgb(251, 251, 251);&quot;&gt;&lt;span style=&quot;border-color: var(--border-color);&quot;&gt;Date&amp;amp;TimefromModele()&lt;/span&gt;&lt;br&gt;&lt;/span&gt;" style="html=1;verticalAlign=bottom;endArrow=block;edgeStyle=elbowEdgeStyle;elbow=vertical;curved=0;rounded=0;" edge="1" parent="1" source="naT41bIFqTK1BzOdAEq4-4">
          <mxGeometry x="0.001" y="10" width="80" relative="1" as="geometry">
            <mxPoint x="470" y="350" as="sourcePoint" />
            <mxPoint x="550" y="350" as="targetPoint" />
            <mxPoint as="offset" />
          </mxGeometry>
        </mxCell>
      </root>
    </mxGraphModel>
  </diagram>
</mxfile>
